<svg width="31" height="31" viewBox="0 0 31 31" fill="none" xmlns="http://www.w3.org/2000/svg">
<mask id="mask0_409_1141" style="mask-type:alpha" maskUnits="userSpaceOnUse" x="0" y="0" width="31" height="31">
<rect x="0.5" y="0.31543" width="30" height="30" fill="#D9D9D9"/>
</mask>
<g mask="url(#mask0_409_1141)">
<path d="M13 9.06543H21.75C22.1042 9.06543 22.401 9.18522 22.6406 9.4248C22.8802 9.66439 23 9.96126 23 10.3154C23 10.6696 22.8802 10.9665 22.6406 11.2061C22.401 11.4456 22.1042 11.5654 21.75 11.5654H13C12.6458 11.5654 12.349 11.4456 12.1094 11.2061C11.8698 10.9665 11.75 10.6696 11.75 10.3154C11.75 9.96126 11.8698 9.66439 12.1094 9.4248C12.349 9.18522 12.6458 9.06543 13 9.06543ZM13 12.8154H21.75C22.1042 12.8154 22.401 12.9352 22.6406 13.1748C22.8802 13.4144 23 13.7113 23 14.0654C23 14.4196 22.8802 14.7165 22.6406 14.9561C22.401 15.1956 22.1042 15.3154 21.75 15.3154H13C12.6458 15.3154 12.349 15.1956 12.1094 14.9561C11.8698 14.7165 11.75 14.4196 11.75 14.0654C11.75 13.7113 11.8698 13.4144 12.1094 13.1748C12.349 12.9352 12.6458 12.8154 13 12.8154ZM8 27.8154C6.95833 27.8154 6.07292 27.4508 5.34375 26.7217C4.61458 25.9925 4.25 25.1071 4.25 24.0654V21.5654C4.25 21.2113 4.36979 20.9144 4.60938 20.6748C4.84896 20.4352 5.14583 20.3154 5.5 20.3154H8V5.31543C8 4.62793 8.24479 4.03939 8.73438 3.5498C9.22396 3.06022 9.8125 2.81543 10.5 2.81543H24.25C24.9375 2.81543 25.526 3.06022 26.0156 3.5498C26.5052 4.03939 26.75 4.62793 26.75 5.31543V12.8154C26.75 13.1696 26.6302 13.4665 26.3906 13.7061C26.151 13.9456 25.8542 14.0654 25.5 14.0654C25.1458 14.0654 24.849 13.9456 24.6094 13.7061C24.3698 13.4665 24.25 13.1696 24.25 12.8154V5.31543H10.5V20.3154H14.25C14.6042 20.3154 14.901 20.4352 15.1406 20.6748C15.3802 20.9144 15.5 21.2113 15.5 21.5654C15.5 21.9196 15.3802 22.2165 15.1406 22.4561C14.901 22.6956 14.6042 22.8154 14.25 22.8154H6.75V24.0654C6.75 24.4196 6.86979 24.7165 7.10938 24.9561C7.34896 25.1956 7.64583 25.3154 8 25.3154H14.25C14.6042 25.3154 14.901 25.4352 15.1406 25.6748C15.3802 25.9144 15.5 26.2113 15.5 26.5654C15.5 26.9196 15.3802 27.2165 15.1406 27.4561C14.901 27.6956 14.6042 27.8154 14.25 27.8154H8ZM18 26.5654V24.5029C18 24.3363 18.0312 24.1748 18.0938 24.0186C18.1562 23.8623 18.25 23.7217 18.375 23.5967L24.9062 17.0967C25.0938 16.9092 25.3021 16.7738 25.5312 16.6904C25.7604 16.6071 25.9896 16.5654 26.2188 16.5654C26.4688 16.5654 26.7083 16.6123 26.9375 16.7061C27.1667 16.7998 27.375 16.9404 27.5625 17.1279L28.7188 18.2842C28.8854 18.4717 29.0156 18.68 29.1094 18.9092C29.2031 19.1383 29.25 19.3675 29.25 19.5967C29.25 19.8258 29.2083 20.0602 29.125 20.2998C29.0417 20.5394 28.9063 20.7529 28.7188 20.9404L22.2188 27.4404C22.0938 27.5654 21.9531 27.6592 21.7969 27.7217C21.6406 27.7842 21.4792 27.8154 21.3125 27.8154H19.25C18.8958 27.8154 18.599 27.6956 18.3594 27.4561C18.1198 27.2165 18 26.9196 18 26.5654ZM19.875 25.9404H21.0625L24.8438 22.1279L24.2812 21.5342L23.6875 20.9717L19.875 24.7529V25.9404ZM24.2812 21.5342L23.6875 20.9717L24.8438 22.1279L24.2812 21.5342Z" fill="white"/>
</g>
</svg>
