<svg width="51" height="51" viewBox="0 0 51 51" fill="none" xmlns="http://www.w3.org/2000/svg">
<path d="M46.8013 39.2862C46.5279 38.1612 45.4732 37.4269 44.356 37.505L42.2076 31.7862C42.1294 31.5831 41.9732 31.4191 41.7779 31.3409C41.5826 31.255 41.356 31.2628 41.1607 31.3487L25.5904 38.3566C25.4185 38.3331 25.2466 38.3097 25.0747 38.3097C24.9029 38.3097 24.731 38.3331 24.5591 38.3566L8.98882 31.3487C8.79351 31.2628 8.56694 31.255 8.37163 31.3409C8.16851 31.4269 8.01226 31.5831 7.94194 31.7862L5.80132 37.4972C5.34038 37.4737 4.88726 37.5831 4.48101 37.8331C3.94194 38.1612 3.56694 38.6769 3.41851 39.2862C3.27007 39.8956 3.37163 40.5206 3.69194 41.0597C4.02007 41.5909 4.53569 41.9737 5.13726 42.1144L24.5201 46.8175C24.6997 46.8644 24.8872 46.88 25.0747 46.88C25.2622 46.88 25.4419 46.8566 25.6294 46.8175L45.0826 42.1144C45.6919 41.9659 46.2076 41.5909 46.5279 41.0597C46.856 40.5206 46.9497 39.8956 46.8013 39.2862ZM41.0435 33.1144L41.5982 34.5987L35.7388 36.7941C35.3326 36.9425 35.1294 37.3956 35.2779 37.8019C35.3951 38.1144 35.6997 38.3097 36.0122 38.3097C36.106 38.3097 36.1997 38.2941 36.2857 38.2628L42.145 36.0675L42.8091 37.8487L29.356 41.0987C28.9966 40.2862 28.4107 39.6144 27.6841 39.13L41.0435 33.1144ZM25.0747 42.13L22.356 41.4737C22.8951 40.505 23.9185 39.88 25.0747 39.88C26.231 39.88 27.2544 40.5128 27.7935 41.4816L25.0747 42.13ZM9.10601 33.1144L22.4575 39.1222C21.7388 39.6066 21.1529 40.2784 20.7935 41.0909L7.34038 37.8253L8.00444 36.0597L13.8638 38.255C13.9497 38.2941 14.0435 38.3097 14.1372 38.3097C14.4497 38.3097 14.7544 38.1144 14.8716 37.8019C15.02 37.3956 14.8169 36.9503 14.4107 36.7941L8.55132 34.5987L9.10601 33.1144ZM5.02007 40.2472C4.91069 40.0675 4.87944 39.8566 4.92632 39.6534C4.97319 39.4503 5.10601 39.2706 5.28569 39.1691C5.40288 39.0909 5.54351 39.0519 5.67632 39.0519C5.73882 39.0519 5.80132 39.0597 5.87163 39.0753L21.0747 42.7628C21.0825 42.7628 21.0904 42.7706 21.0982 42.7706H21.1294L21.4341 42.8409L21.5904 44.4894L5.50444 40.5987C5.30132 40.5441 5.12944 40.4191 5.02007 40.2472ZM25.2622 45.3019C25.1372 45.3331 25.0122 45.3331 24.8951 45.3019L23.1997 44.8878L23.0435 43.2394L24.8951 43.6925C25.0201 43.7237 25.1451 43.7237 25.2622 43.6925L27.1138 43.2472L26.9575 44.8956L25.2622 45.3019ZM45.1919 40.2472C45.0826 40.4269 44.9107 40.5519 44.7076 40.5987L28.5591 44.505L28.7154 42.8566L29.0279 42.7784H29.0435C29.0435 42.7784 29.0513 42.7784 29.0513 42.7706L44.3326 39.0753C44.7544 38.9737 45.1763 39.2316 45.2779 39.6534C45.3326 39.8566 45.3013 40.0675 45.1919 40.2472Z" fill="white"/>
<path d="M18.8242 23.051V24.2463V28.9338C18.8242 29.9729 19.5039 30.8401 20.4414 31.1526C20.7539 33.426 22.7148 35.1838 25.0742 35.1838C27.4336 35.1838 29.3945 33.426 29.707 31.1526C30.6445 30.8401 31.3242 29.9729 31.3242 28.9338V24.2463V23.051C34.707 20.6916 36.4648 16.7229 35.9101 12.5979C35.2617 7.7151 31.2304 3.76979 26.332 3.22291C23.2226 2.87135 20.1054 3.86354 17.7851 5.93385C15.4648 8.01197 14.1367 10.9807 14.1367 14.0901C14.1367 17.6838 15.8789 21.0041 18.8242 23.051ZM29.7617 25.0276V26.5901H20.3867V25.0276H29.7617ZM25.0742 33.6213C23.6211 33.6213 22.4101 32.6213 22.0586 31.2776H28.0898C27.7383 32.6213 26.5273 33.6213 25.0742 33.6213ZM28.9804 29.7151H21.168C20.7383 29.7151 20.3867 29.3635 20.3867 28.9338V28.1526H29.7617V28.9338C29.7617 29.3635 29.4101 29.7151 28.9804 29.7151ZM18.8242 7.09791C20.5664 5.54322 22.7461 4.7151 25.0586 4.7151C25.418 4.7151 25.7851 4.73854 26.1523 4.7776C30.3476 5.24635 33.8008 8.62135 34.3554 12.8088C34.8476 16.4729 33.2148 19.9885 30.1133 21.9807C29.8945 22.1213 29.7617 22.3713 29.7617 22.637V23.4651H25.8554V14.8713H28.1992C28.6289 14.8713 28.9804 14.5198 28.9804 14.0901C28.9804 13.6604 28.6289 13.3088 28.1992 13.3088H21.9492C21.5195 13.3088 21.168 13.6604 21.168 14.0901C21.168 14.5198 21.5195 14.8713 21.9492 14.8713H24.293V23.4651H20.3867V22.637C20.3867 22.3713 20.2539 22.1213 20.0273 21.9807C17.3164 20.2385 15.6992 17.2932 15.6992 14.0901C15.6992 11.426 16.8398 8.87916 18.8242 7.09791Z" fill="white"/>
<path d="M39.918 14.8722H43.043C43.4726 14.8722 43.8242 14.5206 43.8242 14.0909C43.8242 13.6612 43.4726 13.3096 43.043 13.3096H39.918C39.4883 13.3096 39.1367 13.6612 39.1367 14.0909C39.1367 14.5206 39.4883 14.8722 39.918 14.8722Z" fill="white"/>
<path d="M39.9191 10.1837C40.0363 10.1837 40.1535 10.1603 40.2707 10.0978L43.3957 8.53532C43.7785 8.34001 43.9347 7.87126 43.7472 7.48844C43.5519 7.10563 43.0832 6.94938 42.7003 7.13688L39.5753 8.69938C39.1925 8.89469 39.0363 9.36344 39.2238 9.74626C39.3566 10.0275 39.63 10.1837 39.9191 10.1837Z" fill="white"/>
<path d="M40.2716 18.0831C39.8809 17.8878 39.4122 18.044 39.2247 18.4346C39.0294 18.8175 39.1856 19.2862 39.5763 19.4815L42.7013 21.044C42.8106 21.0987 42.9278 21.1221 43.045 21.1221C43.3341 21.1221 43.6075 20.9659 43.7481 20.6925C43.9434 20.3097 43.7872 19.8409 43.3966 19.6456L40.2716 18.0831Z" fill="white"/>
<path d="M7.10547 14.8722H10.2304C10.6601 14.8722 11.0117 14.5206 11.0117 14.0909C11.0117 13.6612 10.6601 13.3096 10.2304 13.3096H7.10547C6.67578 13.3096 6.32422 13.6612 6.32422 14.0909C6.32422 14.5206 6.67578 14.8722 7.10547 14.8722Z" fill="white"/>
<path d="M6.75616 8.53448L9.88116 10.097C9.99834 10.1595 10.1155 10.1829 10.2327 10.1829C10.5218 10.1829 10.7952 10.0267 10.9358 9.75323C11.1311 9.37041 10.9749 8.90166 10.5843 8.70635L7.45928 7.14385C7.06866 6.94854 6.59991 7.10479 6.41241 7.4876C6.21709 7.87823 6.37334 8.34698 6.75616 8.53448Z" fill="white"/>
<path d="M9.88005 18.0813L6.75505 19.6438C6.37223 19.8391 6.21598 20.3079 6.40348 20.6907C6.54411 20.9641 6.81755 21.1204 7.10661 21.1204C7.2238 21.1204 7.34098 21.097 7.45817 21.0345L10.5832 19.472C10.966 19.2766 11.1222 18.8079 10.9347 18.4251C10.7394 18.0423 10.2707 17.886 9.88005 18.0813Z" fill="white"/>
</svg>
