<svg width="71" height="57" viewBox="0 0 71 57" fill="none" xmlns="http://www.w3.org/2000/svg">
<g clip-path="url(#clip0_82_749)">
<mask id="mask0_82_749" style="mask-type:luminance" maskUnits="userSpaceOnUse" x="-1" y="0" width="72" height="57">
<path fill-rule="evenodd" clip-rule="evenodd" d="M64.398 30.2337H47.0703C45.5098 30.2337 44.0133 29.6138 42.9099 28.5104C41.8064 27.407 41.1865 25.9104 41.1865 24.35V6.69871C41.1865 5.13824 41.8064 3.64168 42.9099 2.53826C44.0133 1.43484 45.5098 0.814941 47.0703 0.814941H64.7216C66.2821 0.814941 67.7786 1.43484 68.8821 2.53826C69.9855 3.64168 70.6054 5.13824 70.6054 6.69871V26.2622C70.6036 31.5889 69.2869 36.8327 66.7723 41.5284C64.2576 46.2242 60.6227 50.2265 56.1901 53.1804L50.9242 56.7107L47.6881 51.8272L52.9541 48.2969C56.0127 46.2472 58.6102 43.5822 60.5806 40.472C62.5511 37.3618 63.8512 33.8748 64.398 30.2337ZM23.2105 30.2337H5.88279C4.32232 30.2337 2.82576 29.6138 1.72234 28.5104C0.618919 27.407 -0.000976562 25.9104 -0.000976562 24.35V6.69871C-0.000976562 5.13824 0.618919 3.64168 1.72234 2.53826C2.82576 1.43484 4.32232 0.814941 5.88279 0.814941H23.5341C25.0946 0.814941 26.5911 1.43484 27.6946 2.53826C28.798 3.64168 29.4179 5.13824 29.4179 6.69871V26.2622C29.4161 31.5889 28.0994 36.8327 25.5848 41.5284C23.0701 46.2242 19.4352 50.2265 15.0026 53.1804L9.70724 56.7107L6.50058 51.8272L11.7666 48.2969C14.8252 46.2472 17.4227 43.5822 19.3931 40.472C21.3636 37.3618 22.6637 33.8748 23.2105 30.2337Z" fill="white"/>
</mask>
<g mask="url(#mask0_82_749)">
<path d="M64.398 30.2337L65.3869 30.3822L65.5594 29.2337H64.398V30.2337ZM56.1901 53.1804L55.6356 52.3483L55.6333 52.3498L56.1901 53.1804ZM50.9242 56.7107L50.0906 57.2631L50.6459 58.1011L51.481 57.5413L50.9242 56.7107ZM47.6881 51.8272L47.1313 50.9965L46.3051 51.5504L46.8545 52.3795L47.6881 51.8272ZM23.2105 30.2337L24.1994 30.3822L24.3719 29.2337H23.2105V30.2337ZM9.70724 56.7107L8.87133 57.2596L9.42406 58.1013L10.2619 57.5427L9.70724 56.7107ZM6.50058 51.8272L5.94375 50.9965L5.12102 51.5481L5.66468 52.376L6.50058 51.8272ZM47.0703 31.2337H64.398V29.2337H47.0703V31.2337ZM42.2027 29.2175C43.4937 30.5085 45.2446 31.2337 47.0703 31.2337V29.2337C45.775 29.2337 44.5328 28.7192 43.617 27.8033L42.2027 29.2175ZM40.1865 24.35C40.1865 26.1757 40.9118 27.9266 42.2027 29.2175L43.617 27.8033C42.7011 26.8874 42.1865 25.6452 42.1865 24.35H40.1865ZM40.1865 6.69871V24.35H42.1865V6.69871H40.1865ZM42.2027 1.83115C40.9118 3.12211 40.1865 4.87302 40.1865 6.69871H42.1865C42.1865 5.40346 42.7011 4.16125 43.617 3.24537L42.2027 1.83115ZM47.0703 -0.185059C45.2446 -0.185059 43.4937 0.540195 42.2027 1.83115L43.617 3.24537C44.5328 2.32948 45.775 1.81495 47.0703 1.81495V-0.185059ZM64.7216 -0.185059H47.0703V1.81495H64.7216V-0.185059ZM69.5892 1.83115C68.2982 0.540195 66.5473 -0.185059 64.7216 -0.185059V1.81495C66.0169 1.81495 67.2591 2.32948 68.1749 3.24537L69.5892 1.83115ZM71.6054 6.69871C71.6054 4.87302 70.8801 3.12211 69.5892 1.83115L68.1749 3.24537C69.0908 4.16125 69.6054 5.40346 69.6054 6.69871H71.6054ZM71.6054 26.2625V6.69871H69.6054V26.2622L71.6054 26.2625ZM67.6538 42.0005C70.2462 37.1597 71.6035 31.7538 71.6054 26.2625L69.6054 26.2622C69.6036 31.4242 68.3277 36.5057 65.8907 41.0564L67.6538 42.0005ZM56.7447 54.0126C61.3143 50.9674 65.0615 46.8414 67.6538 42.0005L65.8907 41.0564C63.4538 45.607 59.9312 49.4857 55.6356 52.3483L56.7447 54.0126ZM51.481 57.5413L56.747 54.011L55.6333 52.3498L50.3673 55.8801L51.481 57.5413ZM46.8545 52.3795L50.0906 57.2631L51.7578 56.1583L48.5217 51.2748L46.8545 52.3795ZM52.3974 47.4662L47.1313 50.9965L48.2449 52.6578L53.5109 49.1275L52.3974 47.4662ZM59.7359 39.9368C57.8398 42.9295 55.3405 45.4939 52.3974 47.4662L53.5109 49.1275C56.685 47.0004 59.3805 44.2348 61.4254 41.0072L59.7359 39.9368ZM63.4091 30.0852C62.883 33.5888 61.632 36.9441 59.7359 39.9368L61.4254 41.0072C63.4703 37.7795 64.8195 34.1608 65.3869 30.3822L63.4091 30.0852ZM5.88279 31.2337H23.2105V29.2337H5.88279V31.2337ZM1.01523 29.2175C2.30619 30.5085 4.0571 31.2337 5.88279 31.2337V29.2337C4.58753 29.2337 3.34533 28.7192 2.42945 27.8033L1.01523 29.2175ZM-1.00098 24.35C-1.00098 26.1757 -0.275726 27.9266 1.01523 29.2175L2.42945 27.8033C1.51356 26.8874 0.999023 25.6452 0.999023 24.35H-1.00098ZM-1.00098 6.69871V24.35H0.999023V6.69871H-1.00098ZM1.01523 1.83115C-0.275726 3.12211 -1.00098 4.87302 -1.00098 6.69871H0.999023C0.999023 5.40346 1.51356 4.16126 2.42945 3.24537L1.01523 1.83115ZM5.88279 -0.185059C4.0571 -0.185059 2.30619 0.540185 1.01523 1.83115L2.42945 3.24537C3.34533 2.32948 4.58753 1.81495 5.88279 1.81495V-0.185059ZM23.5341 -0.185059H5.88279V1.81495H23.5341V-0.185059ZM28.4017 1.83115C27.1107 0.540195 25.3598 -0.185059 23.5341 -0.185059V1.81495C24.8294 1.81495 26.0716 2.32948 26.9874 3.24537L28.4017 1.83115ZM30.4179 6.69871C30.4179 4.87302 29.6926 3.12211 28.4017 1.83115L26.9874 3.24537C27.9033 4.16125 28.4179 5.40346 28.4179 6.69871H30.4179ZM30.4179 26.2625V6.69871H28.4179V26.2622L30.4179 26.2625ZM26.4663 42.0005C29.0587 37.1597 30.416 31.7538 30.4179 26.2625L28.4179 26.2622C28.4161 31.4242 27.1402 36.5057 24.7032 41.0564L26.4663 42.0005ZM15.5572 54.0126C20.1268 50.9674 23.874 46.8414 26.4663 42.0005L24.7032 41.0564C22.2663 45.607 18.7437 49.4857 14.4481 52.3483L15.5572 54.0126ZM10.2619 57.5427L15.5572 54.0126L14.4481 52.3483L9.15254 55.8786L10.2619 57.5427ZM5.66468 52.376L8.87133 57.2596L10.5432 56.1618L7.33649 51.2783L5.66468 52.376ZM11.2099 47.4662L5.94375 50.9965L7.05742 52.6578L12.3234 49.1275L11.2099 47.4662ZM18.5484 39.9368C16.6524 42.9295 14.153 45.4939 11.2099 47.4662L12.3234 49.1275C15.4975 47.0004 18.193 44.2348 20.2379 41.0072L18.5484 39.9368ZM22.2216 30.0852C21.6955 33.5888 20.4445 36.9441 18.5484 39.9368L20.2379 41.0072C22.2828 37.7795 23.632 34.1608 24.1994 30.3822L22.2216 30.0852Z" fill="#B71A34"/>
</g>
</g>
<defs>
<clipPath id="clip0_82_749">
<rect width="71" height="56" fill="white" transform="translate(0 0.814453)"/>
</clipPath>
</defs>
</svg>
