<svg width="57" height="57" viewBox="0 0 57 57" fill="none" xmlns="http://www.w3.org/2000/svg">
<g clip-path="url(#clip0_409_1647)">
<path d="M12.7142 24.7993C15.137 24.7993 17.5054 25.5178 19.5199 26.8638C21.5344 28.2099 23.1046 30.123 24.0317 32.3614C24.9589 34.5998 25.2015 37.0629 24.7288 39.4392C24.2562 41.8154 23.0895 43.9982 21.3763 45.7114C19.6631 47.4246 17.4803 48.5913 15.1041 49.0639C12.7278 49.5366 10.2647 49.294 8.02633 48.3668C5.78794 47.4397 3.87475 45.8696 2.5287 43.855C1.18265 41.8405 0.464203 39.4721 0.464203 37.0493L0.408203 35.2993C0.408203 28.8015 2.98945 22.5698 7.58409 17.9752C12.1787 13.3806 18.4104 10.7993 24.9082 10.7993V17.7993C22.6091 17.7931 20.3315 18.2428 18.2072 19.1223C16.0829 20.0018 14.1541 21.2937 12.5322 22.9233C11.9017 23.5524 11.3202 24.2287 10.7927 24.9463C11.4204 24.846 12.0597 24.7958 12.7107 24.7958L12.7142 24.7993ZM44.2142 24.7993C46.637 24.7993 49.0054 25.5178 51.0199 26.8638C53.0344 28.2099 54.6045 30.123 55.5317 32.3614C56.4589 34.5998 56.7015 37.0629 56.2288 39.4392C55.7561 41.8154 54.5895 43.9982 52.8763 45.7114C51.1631 47.4246 48.9803 48.5913 46.6041 49.0639C44.2278 49.5366 41.7647 49.294 39.5263 48.3668C37.2879 47.4397 35.3747 45.8696 34.0287 43.855C32.6826 41.8405 31.9642 39.4721 31.9642 37.0493L31.9082 35.2993C31.9082 28.8015 34.4894 22.5698 39.0841 17.9752C43.6787 13.3806 49.9104 10.7993 56.4082 10.7993V17.7993C54.1091 17.7931 51.8315 18.2428 49.7072 19.1223C47.5829 20.0018 45.6541 21.2937 44.0322 22.9233C43.4017 23.5524 42.8202 24.2287 42.2927 24.9463C42.9204 24.846 43.5609 24.7993 44.2142 24.7993Z" fill="#ED1B23"/>
</g>
<defs>
<clipPath id="clip0_409_1647">
<rect width="56" height="56" fill="white" transform="translate(0.408203 0.299316)"/>
</clipPath>
</defs>
</svg>
