<svg width="173" height="114" viewBox="0 0 173 114" fill="none" xmlns="http://www.w3.org/2000/svg">
<path d="M84.2656 28.3655L91.6056 23.6435C92.0269 23.3715 92.2376 22.9969 92.2376 22.5195C92.2376 22.0422 92.0269 21.6682 91.6056 21.3975L84.2656 16.6735C83.8309 16.3682 83.3789 16.3415 82.9096 16.5935C82.4402 16.8442 82.2056 17.2415 82.2056 17.7855V27.2535C82.2056 27.7975 82.4402 28.1949 82.9096 28.4455C83.3789 28.6975 83.8316 28.6709 84.2676 28.3655M71.4356 36.5195C70.5156 36.5195 69.7469 36.2115 69.1296 35.5955C68.5122 34.9795 68.2042 34.2102 68.2056 33.2875V11.7515C68.2056 10.8302 68.5142 10.0615 69.1316 9.44553C69.7489 8.82953 70.5169 8.52086 71.4356 8.51953H100.976C101.896 8.51953 102.664 8.8282 103.28 9.44553C103.896 10.0629 104.204 10.8315 104.206 11.7515V33.2895C104.206 34.2095 103.897 34.9782 103.28 35.5955C102.662 36.2129 101.894 36.5209 100.976 36.5195H92.2056V38.9035C92.2056 39.3689 92.0522 39.7542 91.7456 40.0595C91.4389 40.3649 91.0536 40.5182 90.5896 40.5195H81.8216C81.3576 40.5195 80.9722 40.3662 80.6656 40.0595C80.3589 39.7529 80.2056 39.3675 80.2056 38.9035V36.5195H71.4356Z" fill="white"/>
<path d="M22.2431 65.7355V64.6075H29.5631V65.7355L27.4511 65.9755C27.4351 66.9675 27.4191 67.9755 27.4031 68.9995C27.4031 70.0075 27.4031 71.0235 27.4031 72.0475V73.5115C27.4031 74.3595 27.4031 75.2715 27.4031 76.2475C27.4191 77.2235 27.4351 78.2155 27.4511 79.2235H32.2991L32.9711 75.9115H34.6511L34.4111 80.5195H22.2431V79.3915L24.2591 79.1755C24.2911 78.1675 24.3071 77.1755 24.3071 76.1995C24.3071 75.2075 24.3071 74.2555 24.3071 73.3435V72.0475C24.3071 71.0075 24.3071 69.9835 24.3071 68.9755C24.3071 67.9515 24.2911 66.9435 24.2591 65.9515L22.2431 65.7355ZM36.2079 80.5195V79.5355L37.7919 79.2235C37.8079 78.6315 37.8159 77.9915 37.8159 77.3035C37.8159 76.5995 37.8159 75.9915 37.8159 75.4795V74.3515C37.8159 73.6955 37.8079 73.1515 37.7919 72.7195C37.7919 72.2715 37.7759 71.8075 37.7439 71.3275L36.0399 71.1115V70.1995L40.3599 68.6875L40.7439 68.9275L40.6719 72.3115V75.4795C40.6719 75.9915 40.6719 76.5995 40.6719 77.3035C40.6719 77.9915 40.6799 78.6395 40.6959 79.2475L42.1599 79.5355V80.5195H36.2079ZM39.2319 66.4555C38.7199 66.4555 38.2879 66.2955 37.9359 65.9755C37.5839 65.6555 37.4079 65.2475 37.4079 64.7515C37.4079 64.2395 37.5839 63.8235 37.9359 63.5035C38.2879 63.1835 38.7199 63.0235 39.2319 63.0235C39.7439 63.0235 40.1679 63.1835 40.5039 63.5035C40.8559 63.8235 41.0319 64.2395 41.0319 64.7515C41.0319 65.2475 40.8559 65.6555 40.5039 65.9755C40.1679 66.2955 39.7439 66.4555 39.2319 66.4555ZM50.1735 70.0315V69.0235H54.7335V70.0315L53.3895 70.3195L49.4535 80.6155H48.0375L43.6935 70.2475L42.4455 70.0315V69.0235H48.7575V70.0315L46.9095 70.3195L49.5495 77.2795L51.9255 70.3435L50.1735 70.0315ZM60.8826 69.8395C60.4986 69.8395 60.1146 69.9675 59.7306 70.2235C59.3626 70.4635 59.0426 70.8635 58.7706 71.4235C58.5146 71.9835 58.3546 72.7435 58.2906 73.7035H61.5786C62.1546 73.7035 62.5386 73.5835 62.7306 73.3435C62.9226 73.1035 63.0186 72.7675 63.0186 72.3355C63.0186 71.5995 62.8106 70.9995 62.3946 70.5355C61.9786 70.0715 61.4746 69.8395 60.8826 69.8395ZM60.8826 80.8555C59.7626 80.8555 58.7786 80.6155 57.9306 80.1355C57.0826 79.6555 56.4186 78.9675 55.9386 78.0715C55.4586 77.1595 55.2186 76.0795 55.2186 74.8315C55.2186 73.5515 55.4906 72.4555 56.0346 71.5435C56.5946 70.6155 57.3146 69.9115 58.1946 69.4315C59.0906 68.9355 60.0426 68.6875 61.0506 68.6875C61.9946 68.6875 62.8186 68.8875 63.5226 69.2875C64.2266 69.6875 64.7706 70.2475 65.1546 70.9675C65.5546 71.6875 65.7546 72.5355 65.7546 73.5115C65.7546 74.0235 65.7066 74.4635 65.6106 74.8315H58.2666C58.3306 76.2075 58.6906 77.2395 59.3466 77.9275C60.0186 78.6155 60.8586 78.9595 61.8666 78.9595C62.5706 78.9595 63.1626 78.8235 63.6426 78.5515C64.1386 78.2635 64.5866 77.8955 64.9866 77.4475L65.6826 78.0715C65.2186 78.9515 64.5786 79.6395 63.7626 80.1355C62.9626 80.6155 62.0026 80.8555 60.8826 80.8555ZM81.2413 80.9275C79.6733 80.9275 78.2653 80.5995 77.0173 79.9435C75.7853 79.2715 74.8093 78.3115 74.0893 77.0635C73.3853 75.7995 73.0333 74.2955 73.0333 72.5515C73.0333 70.8075 73.4013 69.3115 74.1373 68.0635C74.8893 66.8155 75.8893 65.8635 77.1373 65.2075C78.4013 64.5355 79.7933 64.1995 81.3133 64.1995C82.0973 64.1995 82.8813 64.2875 83.6653 64.4635C84.4493 64.6395 85.2253 64.9435 85.9933 65.3755L86.0893 68.9755H84.4333L83.8573 65.9995C83.5053 65.8075 83.1533 65.6715 82.8013 65.5915C82.4493 65.5115 82.0973 65.4715 81.7453 65.4715C80.7853 65.4715 79.8973 65.7355 79.0813 66.2635C78.2813 66.7755 77.6333 67.5595 77.1373 68.6155C76.6573 69.6555 76.4173 70.9755 76.4173 72.5755C76.4173 74.1595 76.6413 75.4795 77.0893 76.5355C77.5533 77.5755 78.1773 78.3515 78.9613 78.8635C79.7453 79.3755 80.6253 79.6315 81.6013 79.6315C82.4173 79.6315 83.2413 79.4475 84.0733 79.0795L84.6493 76.1515H86.2813L86.1853 79.7275C85.4973 80.1115 84.7373 80.4075 83.9053 80.6155C83.0733 80.8235 82.1853 80.9275 81.2413 80.9275ZM87.7202 80.5195V79.5355L89.3522 79.2235C89.3682 78.5995 89.3762 77.9755 89.3762 77.3515C89.3922 76.7275 89.4002 76.1035 89.4002 75.4795V65.1835L87.6482 64.9435V64.0075L92.0162 62.9275L92.3762 63.1435L92.2802 66.5275V75.4795C92.2802 76.1035 92.2802 76.7275 92.2802 77.3515C92.2962 77.9755 92.3122 78.5995 92.3282 79.2235L93.9602 79.5355V80.5195H87.7202ZM104.252 80.8075C103.612 80.8075 103.092 80.6475 102.692 80.3275C102.292 80.0075 102.02 79.5675 101.876 79.0075C101.284 79.6155 100.748 80.0795 100.268 80.3995C99.7875 80.7035 99.1635 80.8555 98.3955 80.8555C97.4995 80.8555 96.7395 80.5995 96.1155 80.0875C95.5075 79.5595 95.2035 78.8075 95.2035 77.8315C95.2035 77.3195 95.3235 76.8475 95.5635 76.4155C95.8035 75.9675 96.2275 75.5515 96.8355 75.1675C97.4595 74.7835 98.3475 74.4075 99.4995 74.0395C99.8195 73.9275 100.18 73.8155 100.58 73.7035C100.98 73.5915 101.388 73.4795 101.804 73.3675V72.6955C101.804 71.5755 101.644 70.8235 101.324 70.4395C101.02 70.0395 100.476 69.8395 99.6915 69.8395C99.5475 69.8395 99.3875 69.8475 99.2115 69.8635C99.0515 69.8795 98.8835 69.9035 98.7075 69.9355L98.4195 71.2555C98.3555 71.8315 98.1875 72.2555 97.9155 72.5275C97.6435 72.7995 97.3075 72.9355 96.9075 72.9355C96.1395 72.9355 95.6915 72.5755 95.5635 71.8555C95.7075 70.8955 96.2195 70.1275 97.0995 69.5515C97.9955 68.9755 99.1715 68.6875 100.628 68.6875C102.02 68.6875 103.036 69.0235 103.676 69.6955C104.316 70.3515 104.636 71.4635 104.636 73.0315V78.2635C104.636 78.9835 104.868 79.3435 105.332 79.3435C105.636 79.3435 105.916 79.1675 106.172 78.8155L106.724 79.2955C106.436 79.8395 106.092 80.2315 105.692 80.4715C105.308 80.6955 104.828 80.8075 104.252 80.8075ZM98.0115 77.3275C98.0115 77.9515 98.1715 78.4075 98.4915 78.6955C98.8275 78.9675 99.2355 79.1035 99.7155 79.1035C99.9875 79.1035 100.26 79.0395 100.532 78.9115C100.804 78.7835 101.228 78.5195 101.804 78.1195V74.3275C101.468 74.4395 101.148 74.5435 100.844 74.6395C100.556 74.7355 100.308 74.8235 100.1 74.9035C99.2995 75.2235 98.7475 75.5915 98.4435 76.0075C98.1555 76.4235 98.0115 76.8635 98.0115 77.3275ZM111.608 80.8555C110.872 80.8555 110.192 80.7675 109.568 80.5915C108.96 80.4315 108.352 80.1835 107.744 79.8475L107.72 77.0635H109.328L109.76 79.2955C110.336 79.5355 110.96 79.6555 111.632 79.6555C112.448 79.6555 113.056 79.5115 113.456 79.2235C113.856 78.9355 114.056 78.5355 114.056 78.0235C114.056 77.5755 113.896 77.2155 113.576 76.9435C113.256 76.6555 112.712 76.3835 111.944 76.1275L110.744 75.7195C109.848 75.4315 109.136 75.0075 108.608 74.4475C108.096 73.8875 107.84 73.1835 107.84 72.3355C107.84 71.6635 108.016 71.0555 108.368 70.5115C108.72 69.9515 109.232 69.5115 109.904 69.1915C110.592 68.8555 111.424 68.6875 112.4 68.6875C113.088 68.6875 113.712 68.7755 114.272 68.9515C114.848 69.1115 115.416 69.3515 115.976 69.6715L115.856 72.1915H114.272L113.84 70.1755C113.392 69.9835 112.896 69.8875 112.352 69.8875C111.712 69.8875 111.216 70.0235 110.864 70.2955C110.512 70.5675 110.336 70.9355 110.336 71.3995C110.336 71.8315 110.48 72.1835 110.768 72.4555C111.072 72.7115 111.632 72.9755 112.448 73.2475L113.408 73.5355C114.576 73.9355 115.408 74.4315 115.904 75.0235C116.4 75.6155 116.648 76.3275 116.648 77.1595C116.648 78.2315 116.208 79.1195 115.328 79.8235C114.464 80.5115 113.224 80.8555 111.608 80.8555ZM122.272 80.8555C121.536 80.8555 120.856 80.7675 120.232 80.5915C119.624 80.4315 119.016 80.1835 118.408 79.8475L118.384 77.0635H119.992L120.424 79.2955C121 79.5355 121.624 79.6555 122.296 79.6555C123.112 79.6555 123.72 79.5115 124.12 79.2235C124.52 78.9355 124.72 78.5355 124.72 78.0235C124.72 77.5755 124.56 77.2155 124.24 76.9435C123.92 76.6555 123.376 76.3835 122.608 76.1275L121.408 75.7195C120.512 75.4315 119.8 75.0075 119.272 74.4475C118.76 73.8875 118.504 73.1835 118.504 72.3355C118.504 71.6635 118.68 71.0555 119.032 70.5115C119.384 69.9515 119.896 69.5115 120.568 69.1915C121.256 68.8555 122.088 68.6875 123.064 68.6875C123.752 68.6875 124.376 68.7755 124.936 68.9515C125.512 69.1115 126.08 69.3515 126.64 69.6715L126.52 72.1915H124.936L124.504 70.1755C124.056 69.9835 123.56 69.8875 123.016 69.8875C122.376 69.8875 121.88 70.0235 121.528 70.2955C121.176 70.5675 121 70.9355 121 71.3995C121 71.8315 121.144 72.1835 121.432 72.4555C121.736 72.7115 122.296 72.9755 123.112 73.2475L124.072 73.5355C125.24 73.9355 126.072 74.4315 126.568 75.0235C127.064 75.6155 127.312 76.3275 127.312 77.1595C127.312 78.2315 126.872 79.1195 125.992 79.8235C125.128 80.5115 123.888 80.8555 122.272 80.8555ZM134.64 69.8395C134.256 69.8395 133.872 69.9675 133.488 70.2235C133.12 70.4635 132.8 70.8635 132.528 71.4235C132.272 71.9835 132.112 72.7435 132.048 73.7035H135.336C135.912 73.7035 136.296 73.5835 136.488 73.3435C136.68 73.1035 136.776 72.7675 136.776 72.3355C136.776 71.5995 136.568 70.9995 136.152 70.5355C135.736 70.0715 135.232 69.8395 134.64 69.8395ZM134.64 80.8555C133.52 80.8555 132.536 80.6155 131.688 80.1355C130.84 79.6555 130.176 78.9675 129.696 78.0715C129.216 77.1595 128.976 76.0795 128.976 74.8315C128.976 73.5515 129.248 72.4555 129.792 71.5435C130.352 70.6155 131.072 69.9115 131.952 69.4315C132.848 68.9355 133.8 68.6875 134.808 68.6875C135.752 68.6875 136.576 68.8875 137.28 69.2875C137.984 69.6875 138.528 70.2475 138.912 70.9675C139.312 71.6875 139.512 72.5355 139.512 73.5115C139.512 74.0235 139.464 74.4635 139.368 74.8315H132.024C132.088 76.2075 132.448 77.2395 133.104 77.9275C133.776 78.6155 134.616 78.9595 135.624 78.9595C136.328 78.9595 136.92 78.8235 137.4 78.5515C137.896 78.2635 138.344 77.8955 138.744 77.4475L139.44 78.0715C138.976 78.9515 138.336 79.6395 137.52 80.1355C136.72 80.6155 135.76 80.8555 134.64 80.8555ZM145.288 80.8555C144.552 80.8555 143.872 80.7675 143.248 80.5915C142.64 80.4315 142.032 80.1835 141.424 79.8475L141.4 77.0635H143.008L143.44 79.2955C144.016 79.5355 144.64 79.6555 145.312 79.6555C146.128 79.6555 146.736 79.5115 147.136 79.2235C147.536 78.9355 147.736 78.5355 147.736 78.0235C147.736 77.5755 147.576 77.2155 147.256 76.9435C146.936 76.6555 146.392 76.3835 145.624 76.1275L144.424 75.7195C143.528 75.4315 142.816 75.0075 142.288 74.4475C141.776 73.8875 141.52 73.1835 141.52 72.3355C141.52 71.6635 141.696 71.0555 142.048 70.5115C142.4 69.9515 142.912 69.5115 143.584 69.1915C144.272 68.8555 145.104 68.6875 146.08 68.6875C146.768 68.6875 147.392 68.7755 147.952 68.9515C148.528 69.1115 149.096 69.3515 149.656 69.6715L149.536 72.1915H147.952L147.52 70.1755C147.072 69.9835 146.576 69.8875 146.032 69.8875C145.392 69.8875 144.896 70.0235 144.544 70.2955C144.192 70.5675 144.016 70.9355 144.016 71.3995C144.016 71.8315 144.16 72.1835 144.448 72.4555C144.752 72.7115 145.312 72.9755 146.128 73.2475L147.088 73.5355C148.256 73.9355 149.088 74.4315 149.584 75.0235C150.08 75.6155 150.328 76.3275 150.328 77.1595C150.328 78.2315 149.888 79.1195 149.008 79.8235C148.144 80.5115 146.904 80.8555 145.288 80.8555Z" fill="white"/>
<path d="M2.55757 106.484H5.97357V107.52H1.28357V97.7615H2.55757V106.484ZM10.6725 107.646C9.95387 107.646 9.30054 107.482 8.71254 107.156C8.13387 106.829 7.67654 106.367 7.34054 105.77C7.01387 105.163 6.85054 104.463 6.85054 103.67C6.85054 102.886 7.01854 102.195 7.35454 101.598C7.69987 100.991 8.16654 100.529 8.75454 100.212C9.34254 99.8849 10.0005 99.7215 10.7285 99.7215C11.4565 99.7215 12.1145 99.8849 12.7025 100.212C13.2905 100.529 13.7525 100.986 14.0885 101.584C14.4339 102.181 14.6065 102.876 14.6065 103.67C14.6065 104.463 14.4292 105.163 14.0745 105.77C13.7292 106.367 13.2579 106.829 12.6605 107.156C12.0632 107.482 11.4005 107.646 10.6725 107.646ZM10.6725 106.526C11.1299 106.526 11.5592 106.418 11.9605 106.204C12.3619 105.989 12.6839 105.667 12.9265 105.238C13.1785 104.808 13.3045 104.286 13.3045 103.67C13.3045 103.054 13.1832 102.531 12.9405 102.102C12.6979 101.672 12.3805 101.355 11.9885 101.15C11.5965 100.935 11.1719 100.828 10.7145 100.828C10.2479 100.828 9.81854 100.935 9.42654 101.15C9.04387 101.355 8.73587 101.672 8.50254 102.102C8.2692 102.531 8.15254 103.054 8.15254 103.67C8.15254 104.295 8.26454 104.822 8.48854 105.252C8.72187 105.681 9.02987 106.003 9.41254 106.218C9.7952 106.423 10.2152 106.526 10.6725 106.526ZM17.5556 101.094C17.7796 100.655 18.0969 100.314 18.5076 100.072C18.9276 99.8289 19.4363 99.7075 20.0336 99.7075V101.024H19.6976C18.2696 101.024 17.5556 101.798 17.5556 103.348V107.52H16.2816V99.8475H17.5556V101.094ZM28.5043 103.39C28.5043 103.632 28.4903 103.889 28.4623 104.16H22.3303C22.3769 104.916 22.6336 105.508 23.1003 105.938C23.5763 106.358 24.1503 106.568 24.8223 106.568C25.3729 106.568 25.8303 106.442 26.1943 106.19C26.5676 105.928 26.8289 105.583 26.9783 105.154H28.3503C28.1449 105.891 27.7343 106.493 27.1183 106.96C26.5023 107.417 25.7369 107.646 24.8223 107.646C24.0943 107.646 23.4409 107.482 22.8623 107.156C22.2929 106.829 21.8449 106.367 21.5183 105.77C21.1916 105.163 21.0283 104.463 21.0283 103.67C21.0283 102.876 21.1869 102.181 21.5043 101.584C21.8216 100.986 22.2649 100.529 22.8343 100.212C23.4129 99.8849 24.0756 99.7215 24.8223 99.7215C25.5503 99.7215 26.1943 99.8802 26.7543 100.198C27.3143 100.515 27.7436 100.954 28.0423 101.514C28.3503 102.064 28.5043 102.69 28.5043 103.39ZM27.1883 103.124C27.1883 102.638 27.0809 102.223 26.8663 101.878C26.6516 101.523 26.3576 101.257 25.9843 101.08C25.6203 100.893 25.2143 100.8 24.7663 100.8C24.1223 100.8 23.5716 101.005 23.1143 101.416C22.6663 101.826 22.4096 102.396 22.3443 103.124H27.1883ZM39.4119 99.7075C40.0092 99.7075 40.5412 99.8335 41.0079 100.086C41.4746 100.328 41.8432 100.697 42.1139 101.192C42.3846 101.686 42.5199 102.288 42.5199 102.998V107.52H41.2599V103.18C41.2599 102.414 41.0686 101.831 40.6859 101.43C40.3126 101.019 39.8039 100.814 39.1599 100.814C38.4972 100.814 37.9699 101.028 37.5779 101.458C37.1859 101.878 36.9899 102.489 36.9899 103.292V107.52H35.7299V103.18C35.7299 102.414 35.5386 101.831 35.1559 101.43C34.7826 101.019 34.2739 100.814 33.6299 100.814C32.9672 100.814 32.4399 101.028 32.0479 101.458C31.6559 101.878 31.4599 102.489 31.4599 103.292V107.52H30.1859V99.8475H31.4599V100.954C31.7119 100.552 32.0479 100.244 32.4679 100.03C32.8972 99.8149 33.3686 99.7075 33.8819 99.7075C34.5259 99.7075 35.0952 99.8522 35.5899 100.142C36.0846 100.431 36.4532 100.856 36.6959 101.416C36.9106 100.874 37.2652 100.454 37.7599 100.156C38.2546 99.8569 38.8052 99.7075 39.4119 99.7075ZM49.0002 98.6015C48.7575 98.6015 48.5522 98.5175 48.3842 98.3495C48.2162 98.1815 48.1322 97.9762 48.1322 97.7335C48.1322 97.4909 48.2162 97.2855 48.3842 97.1175C48.5522 96.9495 48.7575 96.8655 49.0002 96.8655C49.2335 96.8655 49.4295 96.9495 49.5882 97.1175C49.7562 97.2855 49.8402 97.4909 49.8402 97.7335C49.8402 97.9762 49.7562 98.1815 49.5882 98.3495C49.4295 98.5175 49.2335 98.6015 49.0002 98.6015ZM49.6162 99.8475V107.52H48.3422V99.8475H49.6162ZM53.0615 101.262C53.3135 100.823 53.6868 100.459 54.1815 100.17C54.6855 99.8709 55.2688 99.7215 55.9315 99.7215C56.6128 99.7215 57.2288 99.8849 57.7795 100.212C58.3395 100.538 58.7781 101 59.0955 101.598C59.4128 102.186 59.5715 102.872 59.5715 103.656C59.5715 104.43 59.4128 105.121 59.0955 105.728C58.7781 106.334 58.3395 106.806 57.7795 107.142C57.2288 107.478 56.6128 107.646 55.9315 107.646C55.2781 107.646 54.6995 107.501 54.1955 107.212C53.7008 106.913 53.3228 106.544 53.0615 106.106V111.16H51.7875V99.8475H53.0615V101.262ZM58.2695 103.656C58.2695 103.077 58.1528 102.573 57.9195 102.144C57.6861 101.714 57.3688 101.388 56.9675 101.164C56.5755 100.94 56.1415 100.828 55.6655 100.828C55.1988 100.828 54.7648 100.944 54.3635 101.178C53.9715 101.402 53.6541 101.733 53.4115 102.172C53.1781 102.601 53.0615 103.1 53.0615 103.67C53.0615 104.248 53.1781 104.757 53.4115 105.196C53.6541 105.625 53.9715 105.956 54.3635 106.19C54.7648 106.414 55.1988 106.526 55.6655 106.526C56.1415 106.526 56.5755 106.414 56.9675 106.19C57.3688 105.956 57.6861 105.625 57.9195 105.196C58.1528 104.757 58.2695 104.244 58.2695 103.656ZM63.9644 107.646C63.3764 107.646 62.8491 107.548 62.3824 107.352C61.9157 107.146 61.5471 106.866 61.2764 106.512C61.0057 106.148 60.8564 105.732 60.8284 105.266H62.1444C62.1817 105.648 62.3591 105.961 62.6764 106.204C63.0031 106.446 63.4277 106.568 63.9504 106.568C64.4357 106.568 64.8184 106.46 65.0984 106.246C65.3784 106.031 65.5184 105.76 65.5184 105.434C65.5184 105.098 65.3691 104.85 65.0704 104.692C64.7717 104.524 64.3097 104.36 63.6844 104.202C63.1151 104.052 62.6484 103.903 62.2844 103.754C61.9297 103.595 61.6217 103.366 61.3604 103.068C61.1084 102.76 60.9824 102.358 60.9824 101.864C60.9824 101.472 61.0991 101.112 61.3324 100.786C61.5657 100.459 61.8971 100.202 62.3264 100.016C62.7557 99.8195 63.2457 99.7215 63.7964 99.7215C64.6457 99.7215 65.3317 99.9362 65.8544 100.366C66.3771 100.795 66.6571 101.383 66.6944 102.13H65.4204C65.3924 101.728 65.2291 101.406 64.9304 101.164C64.6411 100.921 64.2491 100.8 63.7544 100.8C63.2971 100.8 62.9331 100.898 62.6624 101.094C62.3917 101.29 62.2564 101.546 62.2564 101.864C62.2564 102.116 62.3357 102.326 62.4944 102.494C62.6624 102.652 62.8677 102.783 63.1104 102.886C63.3624 102.979 63.7077 103.086 64.1464 103.208C64.6971 103.357 65.1451 103.506 65.4904 103.656C65.8357 103.796 66.1297 104.01 66.3724 104.3C66.6244 104.589 66.7551 104.967 66.7644 105.434C66.7644 105.854 66.6477 106.232 66.4144 106.568C66.1811 106.904 65.8497 107.17 65.4204 107.366C65.0004 107.552 64.5151 107.646 63.9644 107.646ZM75.3669 99.8475V107.52H74.0929V106.386C73.8502 106.778 73.5095 107.086 73.0709 107.31C72.6415 107.524 72.1655 107.632 71.6429 107.632C71.0455 107.632 70.5089 107.51 70.0329 107.268C69.5569 107.016 69.1789 106.642 68.8989 106.148C68.6282 105.653 68.4929 105.051 68.4929 104.342V99.8475H69.7529V104.174C69.7529 104.93 69.9442 105.513 70.3269 105.924C70.7095 106.325 71.2322 106.526 71.8949 106.526C72.5762 106.526 73.1129 106.316 73.5049 105.896C73.8969 105.476 74.0929 104.864 74.0929 104.062V99.8475H75.3669ZM86.7439 99.7075C87.3413 99.7075 87.8733 99.8335 88.3399 100.086C88.8066 100.328 89.1753 100.697 89.4459 101.192C89.7166 101.686 89.8519 102.288 89.8519 102.998V107.52H88.5919V103.18C88.5919 102.414 88.4006 101.831 88.0179 101.43C87.6446 101.019 87.1359 100.814 86.4919 100.814C85.8293 100.814 85.3019 101.028 84.9099 101.458C84.5179 101.878 84.3219 102.489 84.3219 103.292V107.52H83.0619V103.18C83.0619 102.414 82.8706 101.831 82.4879 101.43C82.1146 101.019 81.6059 100.814 80.9619 100.814C80.2993 100.814 79.7719 101.028 79.3799 101.458C78.9879 101.878 78.7919 102.489 78.7919 103.292V107.52H77.5179V99.8475H78.7919V100.954C79.0439 100.552 79.3799 100.244 79.7999 100.03C80.2293 99.8149 80.7006 99.7075 81.2139 99.7075C81.8579 99.7075 82.4273 99.8522 82.9219 100.142C83.4166 100.431 83.7853 100.856 84.0279 101.416C84.2426 100.874 84.5973 100.454 85.0919 100.156C85.5866 99.8569 86.1373 99.7075 86.7439 99.7075ZM95.1982 103.656C95.1982 102.872 95.3569 102.186 95.6742 101.598C95.9915 101 96.4255 100.538 96.9762 100.212C97.5362 99.8849 98.1615 99.7215 98.8522 99.7215C99.4495 99.7215 100.005 99.8615 100.518 100.142C101.032 100.412 101.424 100.772 101.694 101.22V97.1595H102.982V107.52H101.694V106.078C101.442 106.535 101.069 106.913 100.574 107.212C100.08 107.501 99.5009 107.646 98.8382 107.646C98.1569 107.646 97.5362 107.478 96.9762 107.142C96.4255 106.806 95.9915 106.334 95.6742 105.728C95.3569 105.121 95.1982 104.43 95.1982 103.656ZM101.694 103.67C101.694 103.091 101.578 102.587 101.344 102.158C101.111 101.728 100.794 101.402 100.392 101.178C100 100.944 99.5662 100.828 99.0902 100.828C98.6142 100.828 98.1802 100.94 97.7882 101.164C97.3962 101.388 97.0835 101.714 96.8502 102.144C96.6169 102.573 96.5002 103.077 96.5002 103.656C96.5002 104.244 96.6169 104.757 96.8502 105.196C97.0835 105.625 97.3962 105.956 97.7882 106.19C98.1802 106.414 98.6142 106.526 99.0902 106.526C99.5662 106.526 100 106.414 100.392 106.19C100.794 105.956 101.111 105.625 101.344 105.196C101.578 104.757 101.694 104.248 101.694 103.67ZM108.481 107.646C107.762 107.646 107.109 107.482 106.521 107.156C105.942 106.829 105.485 106.367 105.149 105.77C104.822 105.163 104.659 104.463 104.659 103.67C104.659 102.886 104.827 102.195 105.163 101.598C105.508 100.991 105.975 100.529 106.563 100.212C107.151 99.8849 107.809 99.7215 108.537 99.7215C109.265 99.7215 109.923 99.8849 110.511 100.212C111.099 100.529 111.561 100.986 111.897 101.584C112.242 102.181 112.415 102.876 112.415 103.67C112.415 104.463 112.238 105.163 111.883 105.77C111.538 106.367 111.066 106.829 110.469 107.156C109.872 107.482 109.209 107.646 108.481 107.646ZM108.481 106.526C108.938 106.526 109.368 106.418 109.769 106.204C110.17 105.989 110.492 105.667 110.735 105.238C110.987 104.808 111.113 104.286 111.113 103.67C111.113 103.054 110.992 102.531 110.749 102.102C110.506 101.672 110.189 101.355 109.797 101.15C109.405 100.935 108.98 100.828 108.523 100.828C108.056 100.828 107.627 100.935 107.235 101.15C106.852 101.355 106.544 101.672 106.311 102.102C106.078 102.531 105.961 103.054 105.961 103.67C105.961 104.295 106.073 104.822 106.297 105.252C106.53 105.681 106.838 106.003 107.221 106.218C107.604 106.423 108.024 106.526 108.481 106.526ZM115.364 97.1595V107.52H114.09V97.1595H115.364ZM120.882 107.646C120.163 107.646 119.51 107.482 118.922 107.156C118.343 106.829 117.886 106.367 117.55 105.77C117.223 105.163 117.06 104.463 117.06 103.67C117.06 102.886 117.228 102.195 117.564 101.598C117.909 100.991 118.376 100.529 118.964 100.212C119.552 99.8849 120.21 99.7215 120.938 99.7215C121.666 99.7215 122.324 99.8849 122.912 100.212C123.5 100.529 123.962 100.986 124.298 101.584C124.643 102.181 124.816 102.876 124.816 103.67C124.816 104.463 124.638 105.163 124.284 105.77C123.938 106.367 123.467 106.829 122.87 107.156C122.272 107.482 121.61 107.646 120.882 107.646ZM120.882 106.526C121.339 106.526 121.768 106.418 122.17 106.204C122.571 105.989 122.893 105.667 123.136 105.238C123.388 104.808 123.514 104.286 123.514 103.67C123.514 103.054 123.392 102.531 123.15 102.102C122.907 101.672 122.59 101.355 122.198 101.15C121.806 100.935 121.381 100.828 120.924 100.828C120.457 100.828 120.028 100.935 119.636 101.15C119.253 101.355 118.945 101.672 118.712 102.102C118.478 102.531 118.362 103.054 118.362 103.67C118.362 104.295 118.474 104.822 118.698 105.252C118.931 105.681 119.239 106.003 119.622 106.218C120.004 106.423 120.424 106.526 120.882 106.526ZM127.765 101.094C127.989 100.655 128.306 100.314 128.717 100.072C129.137 99.8289 129.645 99.7075 130.243 99.7075V101.024H129.907C128.479 101.024 127.765 101.798 127.765 103.348V107.52H126.491V99.8475H127.765V101.094ZM134.97 103.656C134.97 102.872 135.128 102.186 135.446 101.598C135.763 101 136.197 100.538 136.748 100.212C137.308 99.8849 137.928 99.7215 138.61 99.7215C139.282 99.7215 139.865 99.8662 140.36 100.156C140.854 100.445 141.223 100.809 141.466 101.248V99.8475H142.754V107.52H141.466V106.092C141.214 106.54 140.836 106.913 140.332 107.212C139.837 107.501 139.258 107.646 138.596 107.646C137.914 107.646 137.298 107.478 136.748 107.142C136.197 106.806 135.763 106.334 135.446 105.728C135.128 105.121 134.97 104.43 134.97 103.656ZM141.466 103.67C141.466 103.091 141.349 102.587 141.116 102.158C140.882 101.728 140.565 101.402 140.164 101.178C139.772 100.944 139.338 100.828 138.862 100.828C138.386 100.828 137.952 100.94 137.56 101.164C137.168 101.388 136.855 101.714 136.622 102.144C136.388 102.573 136.272 103.077 136.272 103.656C136.272 104.244 136.388 104.757 136.622 105.196C136.855 105.625 137.168 105.956 137.56 106.19C137.952 106.414 138.386 106.526 138.862 106.526C139.338 106.526 139.772 106.414 140.164 106.19C140.565 105.956 140.882 105.625 141.116 105.196C141.349 104.757 141.466 104.248 141.466 103.67ZM154.133 99.7075C154.73 99.7075 155.262 99.8335 155.729 100.086C156.195 100.328 156.564 100.697 156.835 101.192C157.105 101.686 157.241 102.288 157.241 102.998V107.52H155.981V103.18C155.981 102.414 155.789 101.831 155.407 101.43C155.033 101.019 154.525 100.814 153.881 100.814C153.218 100.814 152.691 101.028 152.299 101.458C151.907 101.878 151.711 102.489 151.711 103.292V107.52H150.451V103.18C150.451 102.414 150.259 101.831 149.877 101.43C149.503 101.019 148.995 100.814 148.351 100.814C147.688 100.814 147.161 101.028 146.769 101.458C146.377 101.878 146.181 102.489 146.181 103.292V107.52H144.907V99.8475H146.181V100.954C146.433 100.552 146.769 100.244 147.189 100.03C147.618 99.8149 148.089 99.7075 148.603 99.7075C149.247 99.7075 149.816 99.8522 150.311 100.142C150.805 100.431 151.174 100.856 151.417 101.416C151.631 100.874 151.986 100.454 152.481 100.156C152.975 99.8569 153.526 99.7075 154.133 99.7075ZM166.33 103.39C166.33 103.632 166.316 103.889 166.288 104.16H160.156C160.203 104.916 160.46 105.508 160.926 105.938C161.402 106.358 161.976 106.568 162.648 106.568C163.199 106.568 163.656 106.442 164.02 106.19C164.394 105.928 164.655 105.583 164.804 105.154H166.176C165.971 105.891 165.56 106.493 164.944 106.96C164.328 107.417 163.563 107.646 162.648 107.646C161.92 107.646 161.267 107.482 160.688 107.156C160.119 106.829 159.671 106.367 159.344 105.77C159.018 105.163 158.854 104.463 158.854 103.67C158.854 102.876 159.013 102.181 159.33 101.584C159.648 100.986 160.091 100.529 160.66 100.212C161.239 99.8849 161.902 99.7215 162.648 99.7215C163.376 99.7215 164.02 99.8802 164.58 100.198C165.14 100.515 165.57 100.954 165.868 101.514C166.176 102.064 166.33 102.69 166.33 103.39ZM165.014 103.124C165.014 102.638 164.907 102.223 164.692 101.878C164.478 101.523 164.184 101.257 163.81 101.08C163.446 100.893 163.04 100.8 162.592 100.8C161.948 100.8 161.398 101.005 160.94 101.416C160.492 101.826 160.236 102.396 160.17 103.124H165.014ZM169.566 100.898V105.42C169.566 105.793 169.645 106.059 169.804 106.218C169.963 106.367 170.238 106.442 170.63 106.442H171.568V107.52H170.42C169.711 107.52 169.179 107.356 168.824 107.03C168.469 106.703 168.292 106.166 168.292 105.42V100.898H167.298V99.8475H168.292V97.9155H169.566V99.8475H171.568V100.898H169.566Z" fill="white"/>
</svg>
