<svg width="80" height="81" viewBox="0 0 80 81" fill="none" xmlns="http://www.w3.org/2000/svg">
<rect width="80" height="80" rx="6" transform="matrix(-1 0 0 1 80 0.0140991)" fill="#ED1B23"/>
<path d="M19.1068 40.9517L25.1068 25.9517C25.2191 25.6743 25.4117 25.4368 25.6599 25.2697C25.9082 25.1026 26.2007 25.0136 26.5 25.0142C26.6092 25.0158 26.7179 25.029 26.8243 25.0535L38.5 27.6392V23.5142C38.5 23.1163 38.658 22.7348 38.9393 22.4535C39.2206 22.1722 39.6021 22.0142 40 22.0142C40.3978 22.0142 40.7793 22.1722 41.0606 22.4535C41.3419 22.7348 41.5 23.1163 41.5 23.5142V28.3104L53.8243 31.0535C54.062 31.1054 54.2834 31.2142 54.4696 31.3707C54.6558 31.5271 54.8011 31.7265 54.8931 31.9517L60.8931 46.9517C60.9649 47.1305 61.0012 47.3215 61 47.5142C61 51.8848 56.3987 53.5142 53.5 53.5142C50.6012 53.5142 46 51.8848 46 47.5142C45.9988 47.3215 46.0351 47.1305 46.1068 46.9517L51.4525 33.596L41.5 31.3892V55.0142H44.5C44.8978 55.0142 45.2793 55.1722 45.5606 55.4535C45.8419 55.7348 46 56.1163 46 56.5142C46 56.912 45.8419 57.2935 45.5606 57.5748C45.2793 57.8561 44.8978 58.0142 44.5 58.0142H35.5C35.1021 58.0142 34.7206 57.8561 34.4393 57.5748C34.158 57.2935 34 56.912 34 56.5142C34 56.1163 34.158 55.7348 34.4393 55.4535C34.7206 55.1722 35.1021 55.0142 35.5 55.0142H38.5V30.7179L28.9375 28.5954L33.8931 40.9517C33.9649 41.1305 34.0012 41.3215 34 41.5142C34 45.8848 29.3987 47.5142 26.5 47.5142C23.6012 47.5142 19 45.8848 19 41.5142C18.9988 41.3215 19.0351 41.1305 19.1068 40.9517ZM49.1068 47.5142H57.8837L53.5 36.5529L49.1068 47.5142ZM30.8743 41.5142L26.5 30.5529L22.1162 41.5142H30.8743Z" fill="white"/>
</svg>
