<svg width="49" height="49" viewBox="0 0 49 49" fill="none" xmlns="http://www.w3.org/2000/svg">
<path d="M22.2656 28.3655L29.6056 23.6435C30.0269 23.3715 30.2376 22.9969 30.2376 22.5195C30.2376 22.0422 30.0269 21.6682 29.6056 21.3975L22.2656 16.6735C21.8309 16.3682 21.3789 16.3415 20.9096 16.5935C20.4402 16.8442 20.2056 17.2415 20.2056 17.7855V27.2535C20.2056 27.7975 20.4402 28.1949 20.9096 28.4455C21.3789 28.6975 21.8316 28.6709 22.2676 28.3655M9.43557 36.5195C8.51557 36.5195 7.7469 36.2115 7.12957 35.5955C6.51224 34.9795 6.20424 34.2102 6.20557 33.2875V11.7515C6.20557 10.8302 6.51424 10.0615 7.13157 9.44553C7.7489 8.82953 8.5169 8.52086 9.43557 8.51953H38.9756C39.8956 8.51953 40.6636 8.8282 41.2796 9.44553C41.8956 10.0629 42.2042 10.8315 42.2056 11.7515V33.2895C42.2056 34.2095 41.8969 34.9782 41.2796 35.5955C40.6622 36.2129 39.8942 36.5209 38.9756 36.5195H30.2056V38.9035C30.2056 39.3689 30.0522 39.7542 29.7456 40.0595C29.4389 40.3649 29.0536 40.5182 28.5896 40.5195H19.8216C19.3576 40.5195 18.9722 40.3662 18.6656 40.0595C18.3589 39.7529 18.2056 39.3675 18.2056 38.9035V36.5195H9.43557Z" fill="white"/>
</svg>
