<svg width="35" height="34" viewBox="0 0 35 34" fill="none" xmlns="http://www.w3.org/2000/svg">
<path d="M7.57031 9.37524H14.3287" stroke="#FF922E" stroke-width="1.34554" stroke-linecap="round" stroke-linejoin="round"/>
<path d="M7.57031 12.7659H14.3287" stroke="#FF922E" stroke-width="1.34554" stroke-linecap="round" stroke-linejoin="round"/>
<path d="M7.57031 16.1572H14.3287" stroke="#FF922E" stroke-width="1.34554" stroke-linecap="round" stroke-linejoin="round"/>
<path d="M7.57031 19.5471H14.3287" stroke="#FF922E" stroke-width="1.34554" stroke-linecap="round" stroke-linejoin="round"/>
<path d="M4.35156 5.93701H15.9404L17.5464 7.62045V24.7485L15.9394 23.0651H4.35156V5.93701Z" stroke="#FF922E" stroke-width="1.34554" stroke-linecap="round" stroke-linejoin="round"/>
<path d="M19.315 5.93701L17.708 7.62045" stroke="#FF922E" stroke-width="1.34554" stroke-linecap="round" stroke-linejoin="round"/>
<path d="M17.708 24.7498L19.315 23.0654" stroke="#FF922E" stroke-width="1.34554" stroke-linecap="round" stroke-linejoin="round"/>
<path d="M19.3154 23.0651H30.9033V5.93701H19.3154" stroke="#FF922E" stroke-width="1.34554" stroke-linecap="round" stroke-linejoin="round"/>
<path d="M30.9035 8.63092H33.5V25.7446H1.5V8.57544H4.35141" stroke="#FF922E" stroke-width="1.34554" stroke-linecap="round" stroke-linejoin="round"/>
<path d="M20.9268 9.37524H27.6852" stroke="#FF922E" stroke-width="1.34554" stroke-linecap="round" stroke-linejoin="round"/>
<path d="M20.9268 12.7659H27.6852" stroke="#FF922E" stroke-width="1.34554" stroke-linecap="round" stroke-linejoin="round"/>
<path d="M20.9268 16.1572H27.6852" stroke="#FF922E" stroke-width="1.34554" stroke-linecap="round" stroke-linejoin="round"/>
<path d="M10.7891 5.46668C10.7891 4.57714 10.9902 3.58716 11.8683 3.58716H22.8736C23.7516 3.58716 24.2115 4.57905 24.2115 5.46668" stroke="#FF922E" stroke-width="1.34554" stroke-linecap="round" stroke-linejoin="round"/>
<path d="M24.2115 26.2651C24.2115 27.1537 23.745 28.1447 22.8736 28.1447H11.8683C10.9949 28.1447 10.7891 27.1547 10.7891 26.2651" stroke="#FF922E" stroke-width="1.34554" stroke-linecap="round" stroke-linejoin="round"/>
<path d="M19.1121 30.626H15.8887" stroke="#FF922E" stroke-width="1.34554" stroke-linecap="round" stroke-linejoin="round"/>
<path d="M8.19043 26.0122V30.5891C8.19043 32.0305 9.35554 33.2108 10.7784 33.2108H24.2188C25.6416 33.2108 26.8067 32.0315 26.8067 30.5891V26.2246" stroke="#FF922E" stroke-width="1.34554" stroke-linecap="round" stroke-linejoin="round"/>
<path d="M26.8087 5.37121V3.58667C26.8087 2.1445 25.6445 0.965332 24.2207 0.965332H10.7804C9.35655 0.965332 8.19238 2.1445 8.19238 3.58667V5.37121" stroke="#FF922E" stroke-width="1.34554" stroke-linecap="round" stroke-linejoin="round"/>
</svg>
